<mxfile host="Electron" modified="2024-01-21T14:39:17.033Z" agent="Mozilla/5.0 (Windows NT 10.0; Win64; x64) AppleWebKit/537.36 (KHTML, like Gecko) draw.io/22.1.21 Chrome/120.0.6099.109 Electron/28.1.0 Safari/537.36" etag="WTyQiLZm_AmMI3iJqLyD" version="22.1.21" type="device">
  <diagram name="第 1 页" id="4mp0eOHX1eIIjPf4cAYK">
    <mxGraphModel dx="853" dy="523" grid="1" gridSize="10" guides="1" tooltips="1" connect="1" arrows="1" fold="1" page="1" pageScale="1" pageWidth="4681" pageHeight="3300" background="none" math="0" shadow="0">
      <root>
        <mxCell id="0" />
        <mxCell id="1" parent="0" />
        <mxCell id="fh8ytPac5H0yT4dIcQQz-22" style="edgeStyle=orthogonalEdgeStyle;rounded=0;orthogonalLoop=1;jettySize=auto;html=1;entryX=0.5;entryY=0;entryDx=0;entryDy=0;" parent="1" source="fh8ytPac5H0yT4dIcQQz-1" target="fh8ytPac5H0yT4dIcQQz-20" edge="1">
          <mxGeometry relative="1" as="geometry">
            <Array as="points">
              <mxPoint x="1030" y="160" />
              <mxPoint x="460" y="160" />
            </Array>
          </mxGeometry>
        </mxCell>
        <mxCell id="8mJ0ynU8s7fC_wCfXcPd-3" style="edgeStyle=orthogonalEdgeStyle;rounded=0;orthogonalLoop=1;jettySize=auto;html=1;exitX=0.5;exitY=1;exitDx=0;exitDy=0;entryX=0.5;entryY=0;entryDx=0;entryDy=0;" parent="1" source="fh8ytPac5H0yT4dIcQQz-1" target="8mJ0ynU8s7fC_wCfXcPd-1" edge="1">
          <mxGeometry relative="1" as="geometry">
            <Array as="points">
              <mxPoint x="1030" y="160" />
              <mxPoint x="1580" y="160" />
            </Array>
          </mxGeometry>
        </mxCell>
        <mxCell id="fh8ytPac5H0yT4dIcQQz-1" value="BindingProxyBase" style="swimlane;fontStyle=1;align=center;verticalAlign=top;childLayout=stackLayout;horizontal=1;startSize=26;horizontalStack=0;resizeParent=1;resizeParentMax=0;resizeLast=0;collapsible=1;marginBottom=0;whiteSpace=wrap;html=1;rounded=1;" parent="1" vertex="1">
          <mxGeometry x="950" y="70" width="160" height="50" as="geometry">
            <mxRectangle x="140" y="190" width="150" height="30" as="alternateBounds" />
          </mxGeometry>
        </mxCell>
        <mxCell id="6UC4PuHQRuSGpHP8vSzw-161" style="edgeStyle=orthogonalEdgeStyle;rounded=0;orthogonalLoop=1;jettySize=auto;html=1;" edge="1" parent="1" source="fh8ytPac5H0yT4dIcQQz-6">
          <mxGeometry relative="1" as="geometry">
            <mxPoint x="790" y="460" as="targetPoint" />
            <Array as="points">
              <mxPoint x="820" y="320" />
              <mxPoint x="920" y="460" />
            </Array>
          </mxGeometry>
        </mxCell>
        <mxCell id="6UC4PuHQRuSGpHP8vSzw-172" style="edgeStyle=orthogonalEdgeStyle;rounded=0;orthogonalLoop=1;jettySize=auto;html=1;" edge="1" parent="1" source="fh8ytPac5H0yT4dIcQQz-6">
          <mxGeometry relative="1" as="geometry">
            <mxPoint x="1290" y="460" as="targetPoint" />
            <Array as="points">
              <mxPoint x="820" y="320" />
              <mxPoint x="1140" y="460" />
            </Array>
          </mxGeometry>
        </mxCell>
        <mxCell id="fh8ytPac5H0yT4dIcQQz-6" value="IModifiable" style="swimlane;fontStyle=1;align=center;verticalAlign=top;childLayout=stackLayout;horizontal=1;startSize=26;horizontalStack=0;resizeParent=1;resizeParentMax=0;resizeLast=0;collapsible=1;marginBottom=0;whiteSpace=wrap;html=1;rounded=1;" parent="1" vertex="1" collapsed="1">
          <mxGeometry x="770" y="200" width="100" height="30" as="geometry">
            <mxRectangle x="770" y="200" width="590" height="210" as="alternateBounds" />
          </mxGeometry>
        </mxCell>
        <mxCell id="fh8ytPac5H0yT4dIcQQz-16" value="&lt;div style=&quot;color: rgb(212, 212, 212); font-family: &amp;quot;SpaceMono NF&amp;quot;, &amp;quot;Courier New&amp;quot;, monospace, Consolas, &amp;quot;Courier New&amp;quot;, monospace; font-weight: normal; font-size: 16px; line-height: 22px;&quot;&gt;&lt;div&gt;&lt;span style=&quot;color: #569cd6;&quot;&gt;local&lt;/span&gt;&lt;span style=&quot;color: #d4d4d4;&quot;&gt; IModifiable = class(&lt;/span&gt;&lt;span style=&quot;color: #ce9178;&quot;&gt;&quot;IModifiable&quot;&lt;/span&gt;&lt;span style=&quot;color: #d4d4d4;&quot;&gt;) &lt;/span&gt;&lt;span style=&quot;color: #569cd6;&quot;&gt;as&lt;/span&gt;&lt;span style=&quot;color: #d4d4d4;&quot;&gt; IModifiableType&lt;/span&gt;&lt;/div&gt;&lt;br&gt;&lt;div&gt;&lt;span style=&quot;color: #569cd6;&quot;&gt;function&lt;/span&gt;&lt;span style=&quot;color: #d4d4d4;&quot;&gt; IModifiable:SetValue(value: any)&lt;/span&gt;&lt;/div&gt;&lt;div&gt;&lt;span style=&quot;color: #d4d4d4;&quot;&gt;&amp;nbsp; &amp;nbsp; assert({value}, &lt;/span&gt;&lt;span style=&quot;color: #ce9178;&quot;&gt;&quot;&quot;&lt;/span&gt;&lt;span style=&quot;color: #d4d4d4;&quot;&gt;)&lt;/span&gt;&lt;/div&gt;&lt;div&gt;&lt;span style=&quot;color: #569cd6;&quot;&gt;end&lt;/span&gt;&lt;/div&gt;&lt;br&gt;&lt;div&gt;&lt;span style=&quot;color: #569cd6;&quot;&gt;return&lt;/span&gt;&lt;span style=&quot;color: #d4d4d4;&quot;&gt; IModifiable&lt;/span&gt;&lt;/div&gt;&lt;/div&gt;" style="text;whiteSpace=wrap;html=1;fillColor=default;labelBackgroundColor=none;rounded=1;" parent="fh8ytPac5H0yT4dIcQQz-6" vertex="1">
          <mxGeometry y="26" width="590" height="184" as="geometry" />
        </mxCell>
        <mxCell id="6UC4PuHQRuSGpHP8vSzw-163" style="edgeStyle=orthogonalEdgeStyle;rounded=0;orthogonalLoop=1;jettySize=auto;html=1;" edge="1" parent="1" source="fh8ytPac5H0yT4dIcQQz-11">
          <mxGeometry relative="1" as="geometry">
            <mxPoint x="790" y="460" as="targetPoint" />
            <Array as="points">
              <mxPoint x="1240" y="320" />
              <mxPoint x="920" y="460" />
            </Array>
          </mxGeometry>
        </mxCell>
        <mxCell id="6UC4PuHQRuSGpHP8vSzw-170" style="edgeStyle=orthogonalEdgeStyle;rounded=0;orthogonalLoop=1;jettySize=auto;html=1;" edge="1" parent="1" source="fh8ytPac5H0yT4dIcQQz-11">
          <mxGeometry relative="1" as="geometry">
            <mxPoint x="1290" y="460" as="targetPoint" />
            <Array as="points">
              <mxPoint x="1240" y="320" />
              <mxPoint x="1140" y="470" />
            </Array>
          </mxGeometry>
        </mxCell>
        <mxCell id="fh8ytPac5H0yT4dIcQQz-11" value="INotifiable" style="swimlane;fontStyle=1;align=center;verticalAlign=top;childLayout=stackLayout;horizontal=1;startSize=26;horizontalStack=0;resizeParent=1;resizeParentMax=0;resizeLast=0;collapsible=1;marginBottom=0;whiteSpace=wrap;html=1;rounded=1;fillColor=default;" parent="1" vertex="1" collapsed="1">
          <mxGeometry x="1190" y="200" width="100" height="30" as="geometry">
            <mxRectangle x="440" y="50" width="620" height="200" as="alternateBounds" />
          </mxGeometry>
        </mxCell>
        <mxCell id="fh8ytPac5H0yT4dIcQQz-13" value="&lt;div style=&quot;color: rgb(212, 212, 212); font-family: &amp;quot;SpaceMono NF&amp;quot;, &amp;quot;Courier New&amp;quot;, monospace, Consolas, &amp;quot;Courier New&amp;quot;, monospace; font-weight: normal; font-size: 16px; line-height: 22px;&quot;&gt;&lt;div&gt;&lt;span style=&quot;color: #569cd6;&quot;&gt;local&lt;/span&gt;&lt;span style=&quot;color: #d4d4d4;&quot;&gt; INotifiable = class(&lt;/span&gt;&lt;span style=&quot;color: #ce9178;&quot;&gt;&quot;INotifiable&quot;&lt;/span&gt;&lt;span style=&quot;color: #d4d4d4;&quot;&gt;) &lt;/span&gt;&lt;span style=&quot;color: #569cd6;&quot;&gt;as&lt;/span&gt;&lt;span style=&quot;color: #d4d4d4;&quot;&gt; INotifiableType&lt;/span&gt;&lt;/div&gt;&lt;br&gt;&lt;div&gt;&lt;span style=&quot;color: #569cd6;&quot;&gt;function&lt;/span&gt;&lt;span style=&quot;color: #d4d4d4;&quot;&gt; INotifiable.set:ValueChanged(value: EventHandlerType)&lt;/span&gt;&lt;/div&gt;&lt;div&gt;&lt;span style=&quot;color: #d4d4d4;&quot;&gt;&amp;nbsp; &amp;nbsp; assert({value}, &lt;/span&gt;&lt;span style=&quot;color: #ce9178;&quot;&gt;&quot;&quot;&lt;/span&gt;&lt;span style=&quot;color: #d4d4d4;&quot;&gt;)&lt;/span&gt;&lt;/div&gt;&lt;div&gt;&lt;span style=&quot;color: #569cd6;&quot;&gt;end&lt;/span&gt;&lt;/div&gt;&lt;br&gt;&lt;div&gt;&lt;span style=&quot;color: #569cd6;&quot;&gt;return&lt;/span&gt;&lt;span style=&quot;color: #d4d4d4;&quot;&gt; INotifiable&lt;/span&gt;&lt;/div&gt;&lt;/div&gt;" style="text;whiteSpace=wrap;html=1;labelBackgroundColor=none;labelBorderColor=none;align=left;fillColor=default;rounded=1;" parent="fh8ytPac5H0yT4dIcQQz-11" vertex="1">
          <mxGeometry y="26" width="620" height="174" as="geometry" />
        </mxCell>
        <mxCell id="6UC4PuHQRuSGpHP8vSzw-164" style="edgeStyle=orthogonalEdgeStyle;rounded=0;orthogonalLoop=1;jettySize=auto;html=1;" edge="1" parent="1" source="fh8ytPac5H0yT4dIcQQz-17">
          <mxGeometry relative="1" as="geometry">
            <mxPoint x="790" y="460" as="targetPoint" />
            <Array as="points">
              <mxPoint x="1030" y="320" />
              <mxPoint x="920" y="460" />
            </Array>
          </mxGeometry>
        </mxCell>
        <mxCell id="6UC4PuHQRuSGpHP8vSzw-174" style="edgeStyle=orthogonalEdgeStyle;rounded=0;orthogonalLoop=1;jettySize=auto;html=1;" edge="1" parent="1" source="fh8ytPac5H0yT4dIcQQz-17">
          <mxGeometry relative="1" as="geometry">
            <mxPoint x="1290" y="460" as="targetPoint" />
            <Array as="points">
              <mxPoint x="1030" y="320" />
              <mxPoint x="1140" y="460" />
            </Array>
          </mxGeometry>
        </mxCell>
        <mxCell id="fh8ytPac5H0yT4dIcQQz-17" value="IObtainable" style="swimlane;fontStyle=1;align=center;verticalAlign=top;childLayout=stackLayout;horizontal=1;startSize=26;horizontalStack=0;resizeParent=1;resizeParentMax=0;resizeLast=0;collapsible=1;marginBottom=0;whiteSpace=wrap;html=1;rounded=1;fillColor=default;" parent="1" vertex="1" collapsed="1">
          <mxGeometry x="980" y="200" width="100" height="30" as="geometry">
            <mxRectangle x="440" y="50" width="590" height="200" as="alternateBounds" />
          </mxGeometry>
        </mxCell>
        <mxCell id="fh8ytPac5H0yT4dIcQQz-18" value="&lt;div style=&quot;color: rgb(212, 212, 212); font-family: &amp;quot;SpaceMono NF&amp;quot;, &amp;quot;Courier New&amp;quot;, monospace, Consolas, &amp;quot;Courier New&amp;quot;, monospace; font-weight: normal; font-size: 16px; line-height: 22px;&quot;&gt;&lt;div style=&quot;line-height: 22px;&quot;&gt;&lt;div&gt;local IObtainable = class(&lt;span style=&quot;color: #ce9178;&quot;&gt;&quot;IObtainable&quot;&lt;/span&gt;) &lt;span style=&quot;color: #569cd6;&quot;&gt;as&lt;/span&gt; IObtainableType&lt;/div&gt;&lt;br&gt;&lt;div&gt;&lt;span style=&quot;color: #569cd6;&quot;&gt;function&lt;/span&gt; IObtainable:GetValue(): any&lt;/div&gt;&lt;div&gt;&lt;div style=&quot;line-height: 22px;&quot;&gt;&amp;nbsp; &amp;nbsp; return &lt;span style=&quot;color: #569cd6;&quot;&gt;nil&lt;/span&gt;&lt;/div&gt;&lt;/div&gt;&lt;div&gt;&lt;span style=&quot;color: #569cd6;&quot;&gt;end&lt;/span&gt;&lt;/div&gt;&lt;br&gt;&lt;div&gt;&lt;span style=&quot;color: #569cd6;&quot;&gt;return&lt;/span&gt; IObtainable&lt;/div&gt;&lt;/div&gt;&lt;/div&gt;" style="text;whiteSpace=wrap;html=1;labelBackgroundColor=none;labelBorderColor=none;align=left;fillColor=default;rounded=1;" parent="fh8ytPac5H0yT4dIcQQz-17" vertex="1">
          <mxGeometry y="26" width="590" height="174" as="geometry" />
        </mxCell>
        <mxCell id="6UC4PuHQRuSGpHP8vSzw-117" style="edgeStyle=orthogonalEdgeStyle;rounded=0;orthogonalLoop=1;jettySize=auto;html=1;exitX=0.5;exitY=1;exitDx=0;exitDy=0;entryX=0.5;entryY=0;entryDx=0;entryDy=0;" edge="1" parent="1" source="fh8ytPac5H0yT4dIcQQz-20" target="6UC4PuHQRuSGpHP8vSzw-115">
          <mxGeometry relative="1" as="geometry" />
        </mxCell>
        <mxCell id="6UC4PuHQRuSGpHP8vSzw-119" style="edgeStyle=orthogonalEdgeStyle;rounded=0;orthogonalLoop=1;jettySize=auto;html=1;exitX=0.5;exitY=1;exitDx=0;exitDy=0;entryX=0.5;entryY=0;entryDx=0;entryDy=0;" edge="1" parent="1" source="fh8ytPac5H0yT4dIcQQz-20" target="6UC4PuHQRuSGpHP8vSzw-118">
          <mxGeometry relative="1" as="geometry">
            <Array as="points">
              <mxPoint x="460" y="350" />
              <mxPoint x="250" y="350" />
            </Array>
          </mxGeometry>
        </mxCell>
        <mxCell id="6UC4PuHQRuSGpHP8vSzw-121" style="edgeStyle=orthogonalEdgeStyle;rounded=0;orthogonalLoop=1;jettySize=auto;html=1;exitX=0.5;exitY=1;exitDx=0;exitDy=0;" edge="1" parent="1" source="fh8ytPac5H0yT4dIcQQz-20" target="6UC4PuHQRuSGpHP8vSzw-56">
          <mxGeometry relative="1" as="geometry">
            <Array as="points">
              <mxPoint x="460" y="350" />
              <mxPoint x="690" y="350" />
            </Array>
          </mxGeometry>
        </mxCell>
        <mxCell id="fh8ytPac5H0yT4dIcQQz-20" value="SourceProxyBase" style="swimlane;fontStyle=1;align=center;verticalAlign=top;childLayout=stackLayout;horizontal=1;startSize=26;horizontalStack=0;resizeParent=1;resizeParentMax=0;resizeLast=0;collapsible=1;marginBottom=0;whiteSpace=wrap;html=1;rounded=1;" parent="1" vertex="1">
          <mxGeometry x="380" y="200" width="160" height="50" as="geometry" />
        </mxCell>
        <mxCell id="6UC4PuHQRuSGpHP8vSzw-63" style="edgeStyle=orthogonalEdgeStyle;rounded=0;orthogonalLoop=1;jettySize=auto;html=1;entryX=1.002;entryY=0.382;entryDx=0;entryDy=0;entryPerimeter=0;" edge="1" parent="1" source="8mJ0ynU8s7fC_wCfXcPd-1" target="6UC4PuHQRuSGpHP8vSzw-1">
          <mxGeometry relative="1" as="geometry">
            <mxPoint x="1480" y="500" as="targetPoint" />
            <Array as="points">
              <mxPoint x="1580" y="450" />
              <mxPoint x="1480" y="450" />
            </Array>
          </mxGeometry>
        </mxCell>
        <mxCell id="8mJ0ynU8s7fC_wCfXcPd-1" value="TargetProxyBase" style="swimlane;fontStyle=1;align=center;verticalAlign=top;childLayout=stackLayout;horizontal=1;startSize=26;horizontalStack=0;resizeParent=1;resizeParentMax=0;resizeLast=0;collapsible=1;marginBottom=0;whiteSpace=wrap;html=1;rounded=1;" parent="1" vertex="1">
          <mxGeometry x="1500" y="200" width="160" height="50" as="geometry" />
        </mxCell>
        <mxCell id="6UC4PuHQRuSGpHP8vSzw-76" style="edgeStyle=orthogonalEdgeStyle;rounded=0;orthogonalLoop=1;jettySize=auto;html=1;" edge="1" parent="1" source="6UC4PuHQRuSGpHP8vSzw-1" target="6UC4PuHQRuSGpHP8vSzw-74">
          <mxGeometry relative="1" as="geometry" />
        </mxCell>
        <mxCell id="6UC4PuHQRuSGpHP8vSzw-1" value="ValueTargetProxyBase" style="swimlane;fontStyle=1;align=center;verticalAlign=top;childLayout=stackLayout;horizontal=1;startSize=26;horizontalStack=0;resizeParent=1;resizeParentMax=0;resizeLast=0;collapsible=1;marginBottom=0;whiteSpace=wrap;html=1;rounded=1;" vertex="1" parent="1">
          <mxGeometry x="1290" y="430" width="160" height="50" as="geometry" />
        </mxCell>
        <mxCell id="6UC4PuHQRuSGpHP8vSzw-51" value="ViewModelBase" style="swimlane;fontStyle=1;align=center;verticalAlign=top;childLayout=stackLayout;horizontal=1;startSize=26;horizontalStack=0;resizeParent=1;resizeParentMax=0;resizeLast=0;collapsible=1;marginBottom=0;whiteSpace=wrap;html=1;rounded=1;" vertex="1" parent="1">
          <mxGeometry x="40" y="940" width="160" height="50" as="geometry">
            <mxRectangle x="140" y="190" width="150" height="30" as="alternateBounds" />
          </mxGeometry>
        </mxCell>
        <mxCell id="6UC4PuHQRuSGpHP8vSzw-55" style="edgeStyle=orthogonalEdgeStyle;rounded=0;orthogonalLoop=1;jettySize=auto;html=1;entryX=0.5;entryY=0;entryDx=0;entryDy=0;" edge="1" parent="1" source="6UC4PuHQRuSGpHP8vSzw-52" target="6UC4PuHQRuSGpHP8vSzw-51">
          <mxGeometry relative="1" as="geometry" />
        </mxCell>
        <mxCell id="6UC4PuHQRuSGpHP8vSzw-52" value="ObservableObject" style="swimlane;fontStyle=1;align=center;verticalAlign=top;childLayout=stackLayout;horizontal=1;startSize=26;horizontalStack=0;resizeParent=1;resizeParentMax=0;resizeLast=0;collapsible=1;marginBottom=0;whiteSpace=wrap;html=1;rounded=1;" vertex="1" parent="1">
          <mxGeometry x="40" y="840" width="160" height="50" as="geometry">
            <mxRectangle x="140" y="190" width="150" height="30" as="alternateBounds" />
          </mxGeometry>
        </mxCell>
        <mxCell id="6UC4PuHQRuSGpHP8vSzw-56" value="NotifiableSourceProxyBase" style="swimlane;fontStyle=1;align=center;verticalAlign=top;childLayout=stackLayout;horizontal=1;startSize=26;horizontalStack=0;resizeParent=1;resizeParentMax=0;resizeLast=0;collapsible=1;marginBottom=0;whiteSpace=wrap;html=1;rounded=1;" vertex="1" parent="1">
          <mxGeometry x="590" y="430" width="200" height="50" as="geometry">
            <mxRectangle x="140" y="190" width="150" height="30" as="alternateBounds" />
          </mxGeometry>
        </mxCell>
        <mxCell id="6UC4PuHQRuSGpHP8vSzw-68" value="ChainedObjectSourceProxy" style="swimlane;fontStyle=1;align=center;verticalAlign=top;childLayout=stackLayout;horizontal=1;startSize=26;horizontalStack=0;resizeParent=1;resizeParentMax=0;resizeLast=0;collapsible=1;marginBottom=0;whiteSpace=wrap;html=1;rounded=1;" vertex="1" parent="1">
          <mxGeometry x="450" y="640" width="200" height="50" as="geometry">
            <mxRectangle x="140" y="190" width="150" height="30" as="alternateBounds" />
          </mxGeometry>
        </mxCell>
        <mxCell id="6UC4PuHQRuSGpHP8vSzw-71" value="PropertyNodeProxy" style="swimlane;fontStyle=1;align=center;verticalAlign=top;childLayout=stackLayout;horizontal=1;startSize=26;horizontalStack=0;resizeParent=1;resizeParentMax=0;resizeLast=0;collapsible=1;marginBottom=0;whiteSpace=wrap;html=1;rounded=1;" vertex="1" parent="1">
          <mxGeometry x="720" y="640" width="200" height="50" as="geometry">
            <mxRectangle x="140" y="190" width="150" height="30" as="alternateBounds" />
          </mxGeometry>
        </mxCell>
        <mxCell id="6UC4PuHQRuSGpHP8vSzw-79" style="edgeStyle=orthogonalEdgeStyle;rounded=0;orthogonalLoop=1;jettySize=auto;html=1;exitX=0.5;exitY=1;exitDx=0;exitDy=0;entryX=0.5;entryY=0;entryDx=0;entryDy=0;" edge="1" parent="1" source="6UC4PuHQRuSGpHP8vSzw-74" target="6UC4PuHQRuSGpHP8vSzw-77">
          <mxGeometry relative="1" as="geometry" />
        </mxCell>
        <mxCell id="6UC4PuHQRuSGpHP8vSzw-74" value="PropertyTargetProxy" style="swimlane;fontStyle=1;align=center;verticalAlign=top;childLayout=stackLayout;horizontal=1;startSize=26;horizontalStack=0;resizeParent=1;resizeParentMax=0;resizeLast=0;collapsible=1;marginBottom=0;whiteSpace=wrap;html=1;rounded=1;" vertex="1" parent="1">
          <mxGeometry x="1290" y="540" width="160" height="50" as="geometry" />
        </mxCell>
        <mxCell id="6UC4PuHQRuSGpHP8vSzw-77" value="UnityPropertyProxy" style="swimlane;fontStyle=1;align=center;verticalAlign=top;childLayout=stackLayout;horizontal=1;startSize=26;horizontalStack=0;resizeParent=1;resizeParentMax=0;resizeLast=0;collapsible=1;marginBottom=0;whiteSpace=wrap;html=1;rounded=1;" vertex="1" parent="1">
          <mxGeometry x="1290" y="640" width="160" height="50" as="geometry" />
        </mxCell>
        <mxCell id="6UC4PuHQRuSGpHP8vSzw-125" style="edgeStyle=orthogonalEdgeStyle;rounded=0;orthogonalLoop=1;jettySize=auto;html=1;exitX=0.5;exitY=1;exitDx=0;exitDy=0;" edge="1" parent="1" source="6UC4PuHQRuSGpHP8vSzw-80" target="6UC4PuHQRuSGpHP8vSzw-90">
          <mxGeometry relative="1" as="geometry" />
        </mxCell>
        <mxCell id="6UC4PuHQRuSGpHP8vSzw-80" value="INodeProxyFactory" style="swimlane;fontStyle=1;align=center;verticalAlign=top;childLayout=stackLayout;horizontal=1;startSize=26;horizontalStack=0;resizeParent=1;resizeParentMax=0;resizeLast=0;collapsible=1;marginBottom=0;whiteSpace=wrap;html=1;rounded=1;" vertex="1" parent="1">
          <mxGeometry x="2410" y="290" width="200" height="50" as="geometry">
            <mxRectangle x="140" y="190" width="150" height="30" as="alternateBounds" />
          </mxGeometry>
        </mxCell>
        <mxCell id="6UC4PuHQRuSGpHP8vSzw-141" style="edgeStyle=orthogonalEdgeStyle;rounded=0;orthogonalLoop=1;jettySize=auto;html=1;entryX=0.5;entryY=0;entryDx=0;entryDy=0;" edge="1" parent="1" source="6UC4PuHQRuSGpHP8vSzw-82" target="6UC4PuHQRuSGpHP8vSzw-84">
          <mxGeometry relative="1" as="geometry">
            <Array as="points">
              <mxPoint x="2100" y="200" />
              <mxPoint x="1960" y="200" />
            </Array>
          </mxGeometry>
        </mxCell>
        <mxCell id="6UC4PuHQRuSGpHP8vSzw-148" style="edgeStyle=orthogonalEdgeStyle;rounded=0;orthogonalLoop=1;jettySize=auto;html=1;exitX=1;exitY=0.5;exitDx=0;exitDy=0;entryX=0.5;entryY=0;entryDx=0;entryDy=0;" edge="1" parent="1" source="6UC4PuHQRuSGpHP8vSzw-82" target="6UC4PuHQRuSGpHP8vSzw-87">
          <mxGeometry relative="1" as="geometry" />
        </mxCell>
        <mxCell id="6UC4PuHQRuSGpHP8vSzw-82" value="ISourceProxyFactory" style="swimlane;fontStyle=1;align=center;verticalAlign=top;childLayout=stackLayout;horizontal=1;startSize=26;horizontalStack=0;resizeParent=1;resizeParentMax=0;resizeLast=0;collapsible=1;marginBottom=0;whiteSpace=wrap;html=1;rounded=1;" vertex="1" parent="1">
          <mxGeometry x="2000" y="70" width="200" height="50" as="geometry">
            <mxRectangle x="140" y="190" width="150" height="30" as="alternateBounds" />
          </mxGeometry>
        </mxCell>
        <mxCell id="6UC4PuHQRuSGpHP8vSzw-84" value="SourceProxyFactory" style="swimlane;fontStyle=1;align=center;verticalAlign=top;childLayout=stackLayout;horizontal=1;startSize=26;horizontalStack=0;resizeParent=1;resizeParentMax=0;resizeLast=0;collapsible=1;marginBottom=0;whiteSpace=wrap;html=1;rounded=1;" vertex="1" parent="1">
          <mxGeometry x="1860" y="290" width="200" height="50" as="geometry">
            <mxRectangle x="140" y="190" width="150" height="30" as="alternateBounds" />
          </mxGeometry>
        </mxCell>
        <mxCell id="6UC4PuHQRuSGpHP8vSzw-92" style="edgeStyle=orthogonalEdgeStyle;rounded=0;orthogonalLoop=1;jettySize=auto;html=1;entryX=0.5;entryY=0;entryDx=0;entryDy=0;" edge="1" parent="1" source="6UC4PuHQRuSGpHP8vSzw-87" target="6UC4PuHQRuSGpHP8vSzw-90">
          <mxGeometry relative="1" as="geometry">
            <Array as="points">
              <mxPoint x="2260" y="440" />
              <mxPoint x="2510" y="440" />
            </Array>
          </mxGeometry>
        </mxCell>
        <mxCell id="6UC4PuHQRuSGpHP8vSzw-87" value="TypedSourceProxyFactory" style="swimlane;fontStyle=1;align=center;verticalAlign=top;childLayout=stackLayout;horizontal=1;startSize=26;horizontalStack=0;resizeParent=1;resizeParentMax=0;resizeLast=0;collapsible=1;marginBottom=0;whiteSpace=wrap;html=1;rounded=1;" vertex="1" parent="1">
          <mxGeometry x="2160" y="290" width="200" height="50" as="geometry">
            <mxRectangle x="140" y="190" width="150" height="30" as="alternateBounds" />
          </mxGeometry>
        </mxCell>
        <mxCell id="6UC4PuHQRuSGpHP8vSzw-90" value="ObjectSourceProxyFactory" style="swimlane;fontStyle=1;align=center;verticalAlign=top;childLayout=stackLayout;horizontal=1;startSize=26;horizontalStack=0;resizeParent=1;resizeParentMax=0;resizeLast=0;collapsible=1;marginBottom=0;whiteSpace=wrap;html=1;rounded=1;" vertex="1" parent="1">
          <mxGeometry x="2410" y="570" width="200" height="50" as="geometry">
            <mxRectangle x="140" y="190" width="150" height="30" as="alternateBounds" />
          </mxGeometry>
        </mxCell>
        <mxCell id="6UC4PuHQRuSGpHP8vSzw-95" value="UniversalNodeProxyFactory" style="swimlane;fontStyle=1;align=center;verticalAlign=top;childLayout=stackLayout;horizontal=1;startSize=26;horizontalStack=0;resizeParent=1;resizeParentMax=0;resizeLast=0;collapsible=1;marginBottom=0;whiteSpace=wrap;html=1;rounded=1;" vertex="1" parent="1">
          <mxGeometry x="2870" y="570" width="200" height="50" as="geometry">
            <mxRectangle x="140" y="190" width="150" height="30" as="alternateBounds" />
          </mxGeometry>
        </mxCell>
        <mxCell id="6UC4PuHQRuSGpHP8vSzw-102" style="edgeStyle=orthogonalEdgeStyle;rounded=0;orthogonalLoop=1;jettySize=auto;html=1;exitX=0.5;exitY=1;exitDx=0;exitDy=0;entryX=0.5;entryY=0;entryDx=0;entryDy=0;" edge="1" parent="1" source="6UC4PuHQRuSGpHP8vSzw-98" target="6UC4PuHQRuSGpHP8vSzw-100">
          <mxGeometry relative="1" as="geometry" />
        </mxCell>
        <mxCell id="6UC4PuHQRuSGpHP8vSzw-107" style="edgeStyle=orthogonalEdgeStyle;rounded=0;orthogonalLoop=1;jettySize=auto;html=1;exitX=0.5;exitY=1;exitDx=0;exitDy=0;entryX=0.5;entryY=0;entryDx=0;entryDy=0;" edge="1" parent="1" source="6UC4PuHQRuSGpHP8vSzw-98" target="6UC4PuHQRuSGpHP8vSzw-103">
          <mxGeometry relative="1" as="geometry" />
        </mxCell>
        <mxCell id="6UC4PuHQRuSGpHP8vSzw-108" style="edgeStyle=orthogonalEdgeStyle;rounded=0;orthogonalLoop=1;jettySize=auto;html=1;exitX=0.5;exitY=1;exitDx=0;exitDy=0;entryX=0.5;entryY=0;entryDx=0;entryDy=0;" edge="1" parent="1" source="6UC4PuHQRuSGpHP8vSzw-98" target="6UC4PuHQRuSGpHP8vSzw-105">
          <mxGeometry relative="1" as="geometry" />
        </mxCell>
        <mxCell id="6UC4PuHQRuSGpHP8vSzw-98" value="ITargetProxyFactory" style="swimlane;fontStyle=1;align=center;verticalAlign=top;childLayout=stackLayout;horizontal=1;startSize=26;horizontalStack=0;resizeParent=1;resizeParentMax=0;resizeLast=0;collapsible=1;marginBottom=0;whiteSpace=wrap;html=1;rounded=1;" vertex="1" parent="1">
          <mxGeometry x="1900" y="760" width="200" height="50" as="geometry">
            <mxRectangle x="140" y="190" width="150" height="30" as="alternateBounds" />
          </mxGeometry>
        </mxCell>
        <mxCell id="6UC4PuHQRuSGpHP8vSzw-132" style="edgeStyle=orthogonalEdgeStyle;rounded=0;orthogonalLoop=1;jettySize=auto;html=1;entryX=0.522;entryY=1.077;entryDx=0;entryDy=0;entryPerimeter=0;" edge="1" parent="1" source="6UC4PuHQRuSGpHP8vSzw-100" target="6UC4PuHQRuSGpHP8vSzw-130">
          <mxGeometry relative="1" as="geometry">
            <mxPoint x="2230" y="1040" as="targetPoint" />
            <Array as="points">
              <mxPoint x="1770" y="1120" />
              <mxPoint x="2234" y="1120" />
            </Array>
          </mxGeometry>
        </mxCell>
        <mxCell id="6UC4PuHQRuSGpHP8vSzw-100" value="UnityTargetProxyFactory" style="swimlane;fontStyle=1;align=center;verticalAlign=top;childLayout=stackLayout;horizontal=1;startSize=26;horizontalStack=0;resizeParent=1;resizeParentMax=0;resizeLast=0;collapsible=1;marginBottom=0;whiteSpace=wrap;html=1;rounded=1;" vertex="1" parent="1">
          <mxGeometry x="1670" y="980" width="200" height="50" as="geometry">
            <mxRectangle x="140" y="190" width="150" height="30" as="alternateBounds" />
          </mxGeometry>
        </mxCell>
        <mxCell id="6UC4PuHQRuSGpHP8vSzw-131" style="edgeStyle=orthogonalEdgeStyle;rounded=0;orthogonalLoop=1;jettySize=auto;html=1;entryX=0.521;entryY=1.065;entryDx=0;entryDy=0;entryPerimeter=0;" edge="1" parent="1" source="6UC4PuHQRuSGpHP8vSzw-103" target="6UC4PuHQRuSGpHP8vSzw-130">
          <mxGeometry relative="1" as="geometry">
            <mxPoint x="2000" y="1120" as="targetPoint" />
            <Array as="points">
              <mxPoint x="2000" y="1120" />
              <mxPoint x="2234" y="1120" />
            </Array>
          </mxGeometry>
        </mxCell>
        <mxCell id="6UC4PuHQRuSGpHP8vSzw-103" value="UniversalTargetProxyFactory" style="swimlane;fontStyle=1;align=center;verticalAlign=top;childLayout=stackLayout;horizontal=1;startSize=26;horizontalStack=0;resizeParent=1;resizeParentMax=0;resizeLast=0;collapsible=1;marginBottom=0;whiteSpace=wrap;html=1;rounded=1;" vertex="1" parent="1">
          <mxGeometry x="1900" y="980" width="200" height="50" as="geometry">
            <mxRectangle x="140" y="190" width="150" height="30" as="alternateBounds" />
          </mxGeometry>
        </mxCell>
        <mxCell id="6UC4PuHQRuSGpHP8vSzw-105" value="TargetProxyFactory" style="swimlane;fontStyle=1;align=center;verticalAlign=top;childLayout=stackLayout;horizontal=1;startSize=26;horizontalStack=0;resizeParent=1;resizeParentMax=0;resizeLast=0;collapsible=1;marginBottom=0;whiteSpace=wrap;html=1;rounded=1;" vertex="1" parent="1">
          <mxGeometry x="2130" y="980" width="200" height="52" as="geometry">
            <mxRectangle x="140" y="190" width="150" height="30" as="alternateBounds" />
          </mxGeometry>
        </mxCell>
        <mxCell id="6UC4PuHQRuSGpHP8vSzw-130" value="+ field: (factories: PriorityFactory&lt;span style=&quot;background-color: initial;&quot;&gt;)&lt;/span&gt;" style="text;strokeColor=none;fillColor=none;align=left;verticalAlign=top;spacingLeft=4;spacingRight=4;overflow=hidden;rotatable=0;points=[[0,0.5],[1,0.5]];portConstraint=eastwest;whiteSpace=wrap;html=1;" vertex="1" parent="6UC4PuHQRuSGpHP8vSzw-105">
          <mxGeometry y="26" width="200" height="26" as="geometry" />
        </mxCell>
        <mxCell id="6UC4PuHQRuSGpHP8vSzw-114" style="edgeStyle=orthogonalEdgeStyle;rounded=0;orthogonalLoop=1;jettySize=auto;html=1;" edge="1" parent="1" source="6UC4PuHQRuSGpHP8vSzw-110" target="6UC4PuHQRuSGpHP8vSzw-112">
          <mxGeometry relative="1" as="geometry" />
        </mxCell>
        <mxCell id="6UC4PuHQRuSGpHP8vSzw-110" value="SourceDescription" style="swimlane;fontStyle=1;align=center;verticalAlign=top;childLayout=stackLayout;horizontal=1;startSize=26;horizontalStack=0;resizeParent=1;resizeParentMax=0;resizeLast=0;collapsible=1;marginBottom=0;whiteSpace=wrap;html=1;rounded=1;" vertex="1" parent="1">
          <mxGeometry x="410" y="840" width="160" height="50" as="geometry">
            <mxRectangle x="140" y="190" width="150" height="30" as="alternateBounds" />
          </mxGeometry>
        </mxCell>
        <mxCell id="6UC4PuHQRuSGpHP8vSzw-112" value="ObjectSourceDescription" style="swimlane;fontStyle=1;align=center;verticalAlign=top;childLayout=stackLayout;horizontal=1;startSize=26;horizontalStack=0;resizeParent=1;resizeParentMax=0;resizeLast=0;collapsible=1;marginBottom=0;whiteSpace=wrap;html=1;rounded=1;" vertex="1" parent="1">
          <mxGeometry x="390" y="960" width="200" height="50" as="geometry">
            <mxRectangle x="140" y="190" width="150" height="30" as="alternateBounds" />
          </mxGeometry>
        </mxCell>
        <mxCell id="6UC4PuHQRuSGpHP8vSzw-115" value="InteractionNodeProxy" style="swimlane;fontStyle=1;align=center;verticalAlign=top;childLayout=stackLayout;horizontal=1;startSize=26;horizontalStack=0;resizeParent=1;resizeParentMax=0;resizeLast=0;collapsible=1;marginBottom=0;whiteSpace=wrap;html=1;rounded=1;" vertex="1" parent="1">
          <mxGeometry x="380" y="430" width="160" height="50" as="geometry">
            <mxRectangle x="140" y="190" width="150" height="30" as="alternateBounds" />
          </mxGeometry>
        </mxCell>
        <mxCell id="6UC4PuHQRuSGpHP8vSzw-118" value="MethodNodeProxy" style="swimlane;fontStyle=1;align=center;verticalAlign=top;childLayout=stackLayout;horizontal=1;startSize=26;horizontalStack=0;resizeParent=1;resizeParentMax=0;resizeLast=0;collapsible=1;marginBottom=0;whiteSpace=wrap;html=1;rounded=1;" vertex="1" parent="1">
          <mxGeometry x="170" y="430" width="160" height="50" as="geometry">
            <mxRectangle x="140" y="190" width="150" height="30" as="alternateBounds" />
          </mxGeometry>
        </mxCell>
        <mxCell id="6UC4PuHQRuSGpHP8vSzw-122" style="edgeStyle=orthogonalEdgeStyle;rounded=0;orthogonalLoop=1;jettySize=auto;html=1;entryX=0.533;entryY=0.027;entryDx=0;entryDy=0;entryPerimeter=0;" edge="1" parent="1" source="6UC4PuHQRuSGpHP8vSzw-56" target="6UC4PuHQRuSGpHP8vSzw-68">
          <mxGeometry relative="1" as="geometry" />
        </mxCell>
        <mxCell id="6UC4PuHQRuSGpHP8vSzw-123" style="edgeStyle=orthogonalEdgeStyle;rounded=0;orthogonalLoop=1;jettySize=auto;html=1;exitX=0.5;exitY=1;exitDx=0;exitDy=0;entryX=0.542;entryY=-0.057;entryDx=0;entryDy=0;entryPerimeter=0;" edge="1" parent="1" source="6UC4PuHQRuSGpHP8vSzw-56" target="6UC4PuHQRuSGpHP8vSzw-71">
          <mxGeometry relative="1" as="geometry" />
        </mxCell>
        <mxCell id="6UC4PuHQRuSGpHP8vSzw-158" style="edgeStyle=orthogonalEdgeStyle;rounded=0;orthogonalLoop=1;jettySize=auto;html=1;entryX=1;entryY=0.385;entryDx=0;entryDy=0;entryPerimeter=0;" edge="1" parent="1" source="6UC4PuHQRuSGpHP8vSzw-127" target="6UC4PuHQRuSGpHP8vSzw-105">
          <mxGeometry relative="1" as="geometry">
            <mxPoint x="2430" y="1000" as="targetPoint" />
            <Array as="points">
              <mxPoint x="2430" y="1000" />
            </Array>
          </mxGeometry>
        </mxCell>
        <mxCell id="6UC4PuHQRuSGpHP8vSzw-127" value="ITargetProxyFactoryRegister" style="swimlane;fontStyle=1;align=center;verticalAlign=top;childLayout=stackLayout;horizontal=1;startSize=26;horizontalStack=0;resizeParent=1;resizeParentMax=0;resizeLast=0;collapsible=1;marginBottom=0;whiteSpace=wrap;html=1;rounded=1;" vertex="1" parent="1">
          <mxGeometry x="2330" y="760" width="200" height="50" as="geometry">
            <mxRectangle x="140" y="190" width="150" height="30" as="alternateBounds" />
          </mxGeometry>
        </mxCell>
        <mxCell id="6UC4PuHQRuSGpHP8vSzw-144" style="edgeStyle=orthogonalEdgeStyle;rounded=0;orthogonalLoop=1;jettySize=auto;html=1;" edge="1" parent="1" source="6UC4PuHQRuSGpHP8vSzw-133">
          <mxGeometry relative="1" as="geometry">
            <mxPoint x="2510" y="570" as="targetPoint" />
            <Array as="points">
              <mxPoint x="2750" y="440" />
            </Array>
          </mxGeometry>
        </mxCell>
        <mxCell id="6UC4PuHQRuSGpHP8vSzw-147" style="edgeStyle=orthogonalEdgeStyle;rounded=0;orthogonalLoop=1;jettySize=auto;html=1;entryX=0.5;entryY=0;entryDx=0;entryDy=0;" edge="1" parent="1" source="6UC4PuHQRuSGpHP8vSzw-133" target="6UC4PuHQRuSGpHP8vSzw-95">
          <mxGeometry relative="1" as="geometry" />
        </mxCell>
        <mxCell id="6UC4PuHQRuSGpHP8vSzw-133" value="INodeProxyFactoryRegister" style="swimlane;fontStyle=1;align=center;verticalAlign=top;childLayout=stackLayout;horizontal=1;startSize=26;horizontalStack=0;resizeParent=1;resizeParentMax=0;resizeLast=0;collapsible=1;marginBottom=0;whiteSpace=wrap;html=1;rounded=1;" vertex="1" parent="1">
          <mxGeometry x="2650" y="290" width="200" height="50" as="geometry">
            <mxRectangle x="140" y="190" width="150" height="30" as="alternateBounds" />
          </mxGeometry>
        </mxCell>
        <mxCell id="6UC4PuHQRuSGpHP8vSzw-140" style="edgeStyle=orthogonalEdgeStyle;rounded=0;orthogonalLoop=1;jettySize=auto;html=1;exitX=0.5;exitY=1;exitDx=0;exitDy=0;entryX=0.5;entryY=0;entryDx=0;entryDy=0;" edge="1" parent="1" source="6UC4PuHQRuSGpHP8vSzw-138" target="6UC4PuHQRuSGpHP8vSzw-84">
          <mxGeometry relative="1" as="geometry">
            <Array as="points">
              <mxPoint x="1820" y="200" />
              <mxPoint x="1960" y="200" />
            </Array>
          </mxGeometry>
        </mxCell>
        <mxCell id="6UC4PuHQRuSGpHP8vSzw-138" value="INodeProxyFactoryRegister" style="swimlane;fontStyle=1;align=center;verticalAlign=top;childLayout=stackLayout;horizontal=1;startSize=26;horizontalStack=0;resizeParent=1;resizeParentMax=0;resizeLast=0;collapsible=1;marginBottom=0;whiteSpace=wrap;html=1;rounded=1;" vertex="1" parent="1">
          <mxGeometry x="1720" y="70" width="200" height="50" as="geometry">
            <mxRectangle x="140" y="190" width="150" height="30" as="alternateBounds" />
          </mxGeometry>
        </mxCell>
        <mxCell id="6UC4PuHQRuSGpHP8vSzw-226" value="BindingExtension" style="swimlane;fontStyle=1;align=center;verticalAlign=top;childLayout=stackLayout;horizontal=1;startSize=26;horizontalStack=0;resizeParent=1;resizeParentMax=0;resizeLast=0;collapsible=1;marginBottom=0;whiteSpace=wrap;html=1;rounded=1;" vertex="1" collapsed="1" parent="1">
          <mxGeometry x="740" y="840" width="160" height="50" as="geometry">
            <mxRectangle x="40" y="1080" width="210" height="200" as="alternateBounds" />
          </mxGeometry>
        </mxCell>
        <mxCell id="6UC4PuHQRuSGpHP8vSzw-228" value="" style="fontStyle=0;html=1;whiteSpace=wrap;container=1;" vertex="1" parent="6UC4PuHQRuSGpHP8vSzw-226">
          <mxGeometry y="26" width="210" height="174" as="geometry" />
        </mxCell>
        <mxCell id="6UC4PuHQRuSGpHP8vSzw-222" value="BindingSet" style="swimlane;fontStyle=1;align=center;verticalAlign=top;childLayout=stackLayout;horizontal=1;startSize=26;horizontalStack=0;resizeParent=1;resizeParentMax=0;resizeLast=0;collapsible=1;marginBottom=0;whiteSpace=wrap;html=1;rounded=1;" vertex="1" collapsed="1" parent="6UC4PuHQRuSGpHP8vSzw-228">
          <mxGeometry x="25" y="97" width="160" height="50" as="geometry">
            <mxRectangle x="463.12" y="1290" width="430" height="300" as="alternateBounds" />
          </mxGeometry>
        </mxCell>
        <mxCell id="6UC4PuHQRuSGpHP8vSzw-194" value="" style="html=1;whiteSpace=wrap;container=1;rounded=0;arcSize=4;" vertex="1" parent="6UC4PuHQRuSGpHP8vSzw-222">
          <mxGeometry y="26" width="430" height="274" as="geometry">
            <mxRectangle x="960" y="1320" width="100" height="30" as="alternateBounds" />
          </mxGeometry>
        </mxCell>
        <mxCell id="6UC4PuHQRuSGpHP8vSzw-39" value="+ field: context" style="text;strokeColor=none;fillColor=none;align=left;verticalAlign=top;spacingLeft=4;spacingRight=4;overflow=hidden;rotatable=0;points=[[0,0.5],[1,0.5]];portConstraint=eastwest;whiteSpace=wrap;html=1;rounded=0;" vertex="1" parent="6UC4PuHQRuSGpHP8vSzw-194">
          <mxGeometry x="70" y="44" width="92.14" height="27.5" as="geometry" />
        </mxCell>
        <mxCell id="6UC4PuHQRuSGpHP8vSzw-40" value="+ field: builders" style="text;strokeColor=none;fillColor=none;align=left;verticalAlign=top;spacingLeft=4;spacingRight=4;overflow=hidden;rotatable=0;points=[[0,0.5],[1,0.5]];portConstraint=eastwest;whiteSpace=wrap;html=1;" vertex="1" parent="6UC4PuHQRuSGpHP8vSzw-194">
          <mxGeometry x="70" y="129.51999999999998" width="94.88" height="30" as="geometry" />
        </mxCell>
        <mxCell id="6UC4PuHQRuSGpHP8vSzw-23" value="BindingContext" style="swimlane;fontStyle=1;align=center;verticalAlign=top;childLayout=stackLayout;horizontal=1;startSize=26;horizontalStack=0;resizeParent=1;resizeParentMax=0;resizeLast=0;collapsible=1;marginBottom=0;whiteSpace=wrap;html=1;rounded=1;" vertex="1" collapsed="1" parent="6UC4PuHQRuSGpHP8vSzw-194">
          <mxGeometry x="213.32999999999993" y="44" width="150" height="30" as="geometry">
            <mxRectangle x="153.56999999999994" y="54.48000000000002" width="310" height="210" as="alternateBounds" />
          </mxGeometry>
        </mxCell>
        <mxCell id="6UC4PuHQRuSGpHP8vSzw-199" value="" style="html=1;whiteSpace=wrap;container=1;rounded=0;arcSize=6;" vertex="1" parent="6UC4PuHQRuSGpHP8vSzw-23">
          <mxGeometry y="26" width="310" height="184" as="geometry">
            <mxRectangle y="26" width="300" height="50" as="alternateBounds" />
          </mxGeometry>
        </mxCell>
        <mxCell id="6UC4PuHQRuSGpHP8vSzw-200" value="+ field: bindings" style="text;strokeColor=none;fillColor=none;align=left;verticalAlign=top;spacingLeft=4;spacingRight=4;overflow=hidden;rotatable=0;points=[[0,0.5],[1,0.5]];portConstraint=eastwest;whiteSpace=wrap;html=1;rounded=0;" vertex="1" parent="6UC4PuHQRuSGpHP8vSzw-199">
          <mxGeometry x="10" y="23.61999999999991" width="108.78" height="30" as="geometry" />
        </mxCell>
        <mxCell id="6UC4PuHQRuSGpHP8vSzw-43" value="StandardBinder" style="swimlane;fontStyle=1;align=center;verticalAlign=top;childLayout=stackLayout;horizontal=1;startSize=26;horizontalStack=0;resizeParent=1;resizeParentMax=0;resizeLast=0;collapsible=1;marginBottom=0;whiteSpace=wrap;html=1;rounded=1;" vertex="1" parent="6UC4PuHQRuSGpHP8vSzw-199">
          <mxGeometry x="130.0014285714285" y="23.61500000000001" width="160" height="52" as="geometry">
            <mxRectangle x="140" y="190" width="150" height="30" as="alternateBounds" />
          </mxGeometry>
        </mxCell>
        <mxCell id="6UC4PuHQRuSGpHP8vSzw-44" value="+ method: Bind(): Binding" style="text;strokeColor=none;fillColor=none;align=left;verticalAlign=top;spacingLeft=4;spacingRight=4;overflow=hidden;rotatable=0;points=[[0,0.5],[1,0.5]];portConstraint=eastwest;whiteSpace=wrap;html=1;" vertex="1" parent="6UC4PuHQRuSGpHP8vSzw-43">
          <mxGeometry y="26" width="160" height="26" as="geometry" />
        </mxCell>
        <mxCell id="6UC4PuHQRuSGpHP8vSzw-46" value="Binding" style="swimlane;fontStyle=1;align=center;verticalAlign=top;childLayout=stackLayout;horizontal=1;startSize=26;horizontalStack=0;resizeParent=1;resizeParentMax=0;resizeLast=0;collapsible=1;marginBottom=0;whiteSpace=wrap;html=1;rounded=1;" vertex="1" parent="6UC4PuHQRuSGpHP8vSzw-199">
          <mxGeometry x="153.44142857142856" y="110.37499999999977" width="113.12" height="50" as="geometry">
            <mxRectangle x="140" y="190" width="150" height="30" as="alternateBounds" />
          </mxGeometry>
        </mxCell>
        <mxCell id="6UC4PuHQRuSGpHP8vSzw-221" style="edgeStyle=orthogonalEdgeStyle;rounded=0;orthogonalLoop=1;jettySize=auto;html=1;exitX=0.5;exitY=0;exitDx=0;exitDy=0;entryX=0.515;entryY=1.093;entryDx=0;entryDy=0;entryPerimeter=0;" edge="1" parent="6UC4PuHQRuSGpHP8vSzw-199" source="6UC4PuHQRuSGpHP8vSzw-46" target="6UC4PuHQRuSGpHP8vSzw-44">
          <mxGeometry relative="1" as="geometry" />
        </mxCell>
        <mxCell id="6UC4PuHQRuSGpHP8vSzw-21" value="BindingBuilderBase" style="swimlane;fontStyle=1;align=center;verticalAlign=top;childLayout=stackLayout;horizontal=1;startSize=26;horizontalStack=0;resizeParent=1;resizeParentMax=0;resizeLast=0;collapsible=1;marginBottom=0;whiteSpace=wrap;html=1;rounded=1;" vertex="1" parent="6UC4PuHQRuSGpHP8vSzw-194">
          <mxGeometry x="213.32999999999993" y="129.51999999999998" width="160" height="50" as="geometry">
            <mxRectangle x="140" y="190" width="150" height="30" as="alternateBounds" />
          </mxGeometry>
        </mxCell>
        <mxCell id="6UC4PuHQRuSGpHP8vSzw-25" value="BindingBuilder" style="swimlane;fontStyle=1;align=center;verticalAlign=top;childLayout=stackLayout;horizontal=1;startSize=26;horizontalStack=0;resizeParent=1;resizeParentMax=0;resizeLast=0;collapsible=1;marginBottom=0;whiteSpace=wrap;html=1;rounded=1;" vertex="1" parent="6UC4PuHQRuSGpHP8vSzw-194">
          <mxGeometry x="213.32999999999993" y="199.51999999999998" width="160" height="50" as="geometry">
            <mxRectangle x="140" y="190" width="150" height="30" as="alternateBounds" />
          </mxGeometry>
        </mxCell>
        <mxCell id="6UC4PuHQRuSGpHP8vSzw-27" style="edgeStyle=orthogonalEdgeStyle;rounded=0;orthogonalLoop=1;jettySize=auto;html=1;exitX=0.5;exitY=1;exitDx=0;exitDy=0;entryX=0.5;entryY=0;entryDx=0;entryDy=0;" edge="1" parent="6UC4PuHQRuSGpHP8vSzw-194" source="6UC4PuHQRuSGpHP8vSzw-21" target="6UC4PuHQRuSGpHP8vSzw-25">
          <mxGeometry relative="1" as="geometry" />
        </mxCell>
        <mxCell id="6UC4PuHQRuSGpHP8vSzw-225" style="edgeStyle=orthogonalEdgeStyle;rounded=0;orthogonalLoop=1;jettySize=auto;html=1;entryX=0.5;entryY=0;entryDx=0;entryDy=0;" edge="1" parent="6UC4PuHQRuSGpHP8vSzw-228" source="6UC4PuHQRuSGpHP8vSzw-223" target="6UC4PuHQRuSGpHP8vSzw-222">
          <mxGeometry relative="1" as="geometry" />
        </mxCell>
        <mxCell id="6UC4PuHQRuSGpHP8vSzw-223" value="BindingSetBase" style="swimlane;fontStyle=1;align=center;verticalAlign=top;childLayout=stackLayout;horizontal=1;startSize=26;horizontalStack=0;resizeParent=1;resizeParentMax=0;resizeLast=0;collapsible=1;marginBottom=0;whiteSpace=wrap;html=1;rounded=1;" vertex="1" parent="6UC4PuHQRuSGpHP8vSzw-228">
          <mxGeometry x="25" y="27" width="160" height="50" as="geometry">
            <mxRectangle x="140" y="190" width="150" height="30" as="alternateBounds" />
          </mxGeometry>
        </mxCell>
      </root>
    </mxGraphModel>
  </diagram>
</mxfile>
